<?xml version="1.0" standalone="no"?>
<!DOCTYPE svg PUBLIC "-//W3C//DTD SVG 20010904//EN"
 "http://www.w3.org/TR/2001/REC-SVG-20010904/DTD/svg10.dtd">
<svg version="1.0" xmlns="http://www.w3.org/2000/svg"
 width="82.000000pt" height="80.000000pt" viewBox="0 0 82.000000 80.000000"
 preserveAspectRatio="xMidYMid meet">
<metadata>
Created by potrace 1.10, written by Peter Selinger 2001-2011
</metadata>
<g transform="translate(0.000000,80.000000) scale(0.100000,-0.100000)"
fill="#474162" stroke="none">
<path d="M341 679 c-65 -26 -128 -86 -159 -151 -48 -102 -20 -255 60 -329 65
-61 182 -100 238 -81 16 6 30 9 30 6 0 -2 23 7 52 22 178 90 222 309 91 454
-79 87 -207 120 -312 79z m215 -33 c88 -41 154 -144 154 -242 0 -51 -37 -138
-76 -178 -111 -114 -283 -112 -388 5 -92 102 -92 249 -2 356 68 81 208 107
312 59z"/>
<path d="M335 602 c-124 -68 -155 -233 -62 -338 86 -98 231 -106 321 -17 50
49 69 95 69 163 0 169 -179 274 -328 192z m175 -9 c91 -33 136 -106 128 -207
-9 -103 -77 -166 -188 -174 -61 -4 -68 -2 -115 30 -137 91 -123 280 25 345 55
24 95 25 150 6z"/>
<path d="M383 531 c-17 -11 -43 -37 -57 -58 -73 -107 24 -246 147 -212 51 14
117 102 117 155 0 45 -32 99 -70 119 -40 21 -99 19 -137 -4z m112 -15 c55 -23
90 -96 65 -136 -7 -12 -12 -12 -29 4 -12 11 -21 29 -21 42 0 25 -26 44 -58 44
-29 0 -74 -57 -70 -89 4 -32 51 -62 70 -43 9 9 8 15 -8 26 -17 13 -17 16 -4
30 14 14 20 12 58 -18 l42 -34 -35 -31 c-48 -42 -92 -42 -139 -1 -48 42 -55
88 -22 144 22 38 44 56 86 69 24 8 29 8 65 -7z m-45 -90 c0 -2 -7 -7 -16 -10
-8 -3 -12 -2 -9 4 6 10 25 14 25 6z"/>
</g>
</svg>
